<svg width="54" height="35" viewBox="0 0 54 35" fill="none" xmlns="http://www.w3.org/2000/svg">
<g clip-path="url(#clip0_1002_2346)">
<path d="M50.0117 1.09375C50.0117 1.69781 50.5013 2.1875 51.1054 2.1875H52.1992C52.8033 2.1875 53.2929 1.69781 53.2929 1.09375C53.2929 0.489689 52.8033 0 52.1992 0H51.1054C50.5013 0 50.0117 0.489689 50.0117 1.09375Z" fill="#FFFEF6"/>
<path d="M18.2929 35H23.6062L22.0593 33.4532C21.6491 33.043 21.0927 32.8125 20.5126 32.8125H18.2929C9.83603 32.8125 2.98041 25.9569 2.98041 17.5C2.98041 9.04313 9.83603 2.18751 18.2929 2.1875H35.7929C44.2498 2.1875 51.1054 9.04313 51.1054 17.5C51.1054 25.9569 44.2498 32.8125 35.7929 32.8125H29.2465C28.3762 32.8125 27.5417 32.4668 26.9263 31.8515L25.1141 30.0393C24.0886 29.0137 22.6975 28.4375 21.2471 28.4375H18.2929C12.2523 28.4375 7.35541 23.5406 7.35541 17.5C7.35541 11.4593 12.2523 6.5625 18.2929 6.5625H35.7929C41.8336 6.5625 46.7304 11.4593 46.7304 17.5C46.7304 23.5406 41.8336 28.4375 35.7929 28.4375H31.5895C30.7192 28.4375 29.8846 28.0918 29.2693 27.4765L27.457 25.6643C26.4315 24.6387 25.0405 24.0625 23.5901 24.0625H18.2929C14.6686 24.0625 11.7304 21.1243 11.7304 17.5C11.7304 13.8757 14.6686 10.9375 18.2929 10.9375H35.7929C39.4172 10.9375 42.3554 13.8757 42.3554 17.5C42.3554 21.0802 39.4885 23.9908 35.9252 24.0612L35.9245 24.0625H34.3239C33.4536 24.0625 32.619 23.7168 32.0036 23.1015L30.1914 21.2893C29.3499 20.4477 28.2624 19.9088 27.0979 19.7424L27.0429 19.6875H18.2929C17.0848 19.6875 16.1054 18.7081 16.1054 17.5C16.1054 16.2919 17.0848 15.3125 18.2929 15.3125H35.7929C37.001 15.3125 37.9804 16.2919 37.9804 17.5C37.9804 18.7081 37.001 19.6875 35.7929 19.6875H31.4179L32.9647 21.2343C33.3749 21.6445 33.9313 21.875 34.5115 21.875H35.7929C38.2091 21.875 40.1679 19.9162 40.1679 17.5C40.1679 15.0838 38.2091 13.125 35.7929 13.125H18.2929C15.8767 13.125 13.9179 15.0838 13.9179 17.5C13.9179 19.9162 15.8767 21.875 18.2929 21.875H26.3244C27.1947 21.875 28.0293 22.2207 28.6447 22.836L30.4569 24.6482C31.4825 25.6738 32.8735 26.25 34.3239 26.25H36.3398V26.2332C40.9175 25.9509 44.5429 22.1488 44.5429 17.5C44.5429 12.6676 40.6254 8.75 35.7929 8.75H18.2929C13.4605 8.75 9.54291 12.6676 9.54291 17.5C9.54291 22.3325 13.4605 26.25 18.2929 26.25H23.5901C24.4603 26.25 25.2949 26.5957 25.9103 27.211L27.7225 29.0232C28.7481 30.0488 30.1391 30.625 31.5895 30.625H35.7929C43.0417 30.625 48.9179 24.7488 48.9179 17.5C48.9179 10.2512 43.0417 4.375 35.7929 4.375H18.2929C11.0441 4.375 5.16791 10.2512 5.16791 17.5C5.16791 24.7488 11.0441 30.625 18.2929 30.625H21.2471C22.1174 30.625 22.9519 30.9707 23.5673 31.586L25.3795 33.3982C26.4051 34.4238 27.7961 35 29.2465 35H35.7929C45.4579 35 53.2929 27.165 53.2929 17.5C53.2929 7.83501 45.4579 -8.44939e-07 35.7929 0L18.2929 3.61606e-06C8.62792 4.461e-06 0.792907 7.83502 0.792908 17.5C0.792909 27.165 8.62793 35 18.2929 35Z" fill="#FFFEF6"/>
</g>
<defs>
<clipPath id="clip0_1002_2346">
<rect width="52.5" height="35" fill="white" transform="translate(0.792908)"/>
</clipPath>
</defs>
</svg>
