<svg width="133" height="35" viewBox="0 0 133 35" fill="none" xmlns="http://www.w3.org/2000/svg">
<path d="M31.2523 12.25C31.6123 12.25 31.7323 12.38 31.7323 12.73V20.65H35.8023C36.1523 20.65 36.2823 20.78 36.2823 21.13V21.83C36.2823 22.18 36.1523 22.31 35.8023 22.31H30.4423C30.0923 22.31 29.9523 22.18 29.9523 21.83V12.73C29.9523 12.38 30.0923 12.25 30.4423 12.25H31.2523Z" fill="#FFFEF6"/>
<path d="M39.8323 15.74C39.8323 13.43 41.2923 12.04 43.8323 12.04C46.3723 12.04 47.8323 13.43 47.8323 15.74V18.82C47.8323 21.13 46.3623 22.52 43.8323 22.52C41.3023 22.52 39.8323 21.13 39.8323 18.82V15.74ZM46.1523 15.74C46.1523 14.44 45.3423 13.74 43.8823 13.74C42.4223 13.74 41.6223 14.45 41.6223 15.74V18.84C41.6223 20.15 42.4223 20.84 43.8823 20.84C45.3423 20.84 46.1523 20.12 46.1523 18.84V15.74Z" fill="#FFFEF6"/>
<path d="M59.7424 16.8C60.1324 16.8 60.2224 16.93 60.2224 17.28V19.18C60.233 19.6275 60.1433 20.0718 59.9599 20.4801C59.7764 20.8885 59.504 21.2506 59.1624 21.54C58.3141 22.2155 57.2445 22.5506 56.1624 22.48C53.5724 22.48 52.1624 21.09 52.1624 18.78V15.68C52.1624 13.4 53.6224 12 56.1624 12C58.1624 12 59.4624 12.79 60.0124 14.37C60.0432 14.4294 60.0597 14.4951 60.0606 14.5619C60.0615 14.6288 60.0468 14.695 60.0177 14.7551C59.9886 14.8153 59.9458 14.8679 59.8928 14.9087C59.8398 14.9494 59.778 14.9773 59.7124 14.99L58.9324 15.26C58.5924 15.38 58.4524 15.31 58.3324 14.96C58.1667 14.5329 57.8634 14.1731 57.4704 13.9377C57.0774 13.7023 56.6172 13.6045 56.1624 13.66C54.6924 13.66 53.8924 14.37 53.8924 15.66V18.84C53.8924 20.15 54.7024 20.84 56.1624 20.84C57.6224 20.84 58.5224 20.17 58.5224 19.19V18.45H56.3524C55.9924 18.45 55.8624 18.31 55.8624 17.96V17.28C55.8624 16.93 55.9924 16.8 56.3524 16.8H59.7424Z" fill="#FFFEF6"/>
<path d="M64.3523 15.74C64.3523 13.43 65.8123 12.04 68.3523 12.04C70.8923 12.04 72.3523 13.43 72.3523 15.74V18.82C72.3523 21.13 70.8823 22.52 68.3523 22.52C65.8223 22.52 64.3523 21.13 64.3523 18.82V15.74ZM70.6623 15.74C70.6623 14.44 69.8523 13.74 68.4023 13.74C66.9523 13.74 66.1323 14.45 66.1323 15.74V18.84C66.1323 20.15 66.9423 20.84 68.4023 20.84C69.8623 20.84 70.6623 20.12 70.6623 18.84V15.74Z" fill="#FFFEF6"/>
<path d="M77.0623 12.54C77.0623 12.32 77.1323 12.25 77.3523 12.25H77.8123C78.0323 12.25 78.0823 12.32 78.0823 12.54V22.02C78.0823 22.24 78.0823 22.31 77.8123 22.31H77.3523C77.1323 22.31 77.0623 22.24 77.0623 22.02V12.54Z" fill="#FFFEF6"/>
<path d="M87.1924 12.25C88.0252 12.25 88.8238 12.5808 89.4127 13.1697C90.0016 13.7585 90.3324 14.5572 90.3324 15.39C90.3324 16.2228 90.0016 17.0215 89.4127 17.6103C88.8238 18.1992 88.0252 18.53 87.1924 18.53H84.1924V22.02C84.1924 22.24 84.1424 22.31 83.9324 22.31H83.4624C83.2524 22.31 83.1724 22.24 83.1724 22.02V12.54C83.1724 12.32 83.2524 12.25 83.4624 12.25H87.1924ZM87.1024 17.54C87.3887 17.54 87.6722 17.4836 87.9367 17.3741C88.2011 17.2645 88.4415 17.1039 88.6439 16.9015C88.8463 16.6991 89.0069 16.4587 89.1165 16.1943C89.226 15.9298 89.2824 15.6463 89.2824 15.36C89.2824 15.0737 89.226 14.7902 89.1165 14.5257C89.0069 14.2613 88.8463 14.0209 88.6439 13.8185C88.4415 13.6161 88.2011 13.4555 87.9367 13.3459C87.6722 13.2364 87.3887 13.18 87.1024 13.18H84.1024V17.54H87.1024Z" fill="#FFFEF6"/>
<path d="M98.1423 12.05C98.9144 11.9648 99.6933 12.1309 100.363 12.5236C101.033 12.9164 101.559 13.5148 101.862 14.23C101.942 14.39 101.862 14.52 101.702 14.6L101.262 14.8C101.082 14.87 101.012 14.86 100.902 14.67C100.676 14.1392 100.286 13.6942 99.79 13.3994C99.2939 13.1046 98.7168 12.9752 98.1423 13.03C96.4523 13.03 95.5323 13.7 95.5323 14.9C95.5225 15.2667 95.6456 15.6247 95.8791 15.9077C96.1125 16.1907 96.4404 16.3798 96.8023 16.44C97.3401 16.6154 97.8978 16.7229 98.4623 16.76C99.1456 16.7964 99.8197 16.9346 100.462 17.17C100.955 17.3259 101.379 17.6465 101.663 18.0781C101.947 18.5097 102.074 19.0259 102.022 19.54C102.022 21.41 100.662 22.54 98.1623 22.54C97.3423 22.6338 96.5149 22.4438 95.818 22.0016C95.1211 21.5595 94.5967 20.8918 94.3323 20.11C94.3146 20.0744 94.3051 20.0353 94.3043 19.9955C94.3035 19.9557 94.3116 19.9163 94.3278 19.88C94.344 19.8437 94.3681 19.8114 94.3983 19.7855C94.4284 19.7595 94.4639 19.7406 94.5023 19.73L94.9423 19.57C94.9769 19.5558 95.0142 19.549 95.0516 19.55C95.089 19.551 95.1258 19.5598 95.1597 19.5758C95.1935 19.5918 95.2237 19.6146 95.2482 19.6429C95.2728 19.6712 95.2912 19.7042 95.3023 19.74C95.526 20.3049 95.9238 20.7839 96.438 21.1076C96.9522 21.4312 97.5562 21.5827 98.1623 21.54C100.052 21.54 100.982 20.88 100.982 19.54C101 19.1878 100.892 18.8407 100.678 18.5605C100.463 18.2804 100.157 18.0853 99.8123 18.01C99.2949 17.8557 98.7613 17.7617 98.2223 17.73L97.1423 17.59C96.8043 17.5183 96.4705 17.4281 96.1423 17.32C95.8181 17.2221 95.5159 17.0625 95.2523 16.85C94.987 16.6098 94.7779 16.3142 94.6396 15.9841C94.5014 15.654 94.4374 15.2976 94.4523 14.94C94.5223 13.19 95.8323 12.05 98.1423 12.05Z" fill="#FFFEF6"/>
<path d="M107.412 18.89C107.454 19.5972 107.765 20.2615 108.281 20.7472C108.797 21.2329 109.479 21.5033 110.187 21.5033C110.895 21.5033 111.577 21.2329 112.093 20.7472C112.609 20.2615 112.919 19.5972 112.962 18.89V12.54C112.962 12.32 113.032 12.25 113.252 12.25H113.712C113.932 12.25 114.002 12.32 114.002 12.54V18.88C114.002 21.15 112.662 22.52 110.192 22.52C107.722 22.52 106.382 21.15 106.382 18.88V12.54C106.382 12.32 106.452 12.25 106.662 12.25H107.132C107.342 12.25 107.412 12.32 107.412 12.54V18.89Z" fill="#FFFEF6"/>
<path d="M127.802 12.25C128.022 12.25 128.092 12.32 128.092 12.54V22.02C128.092 22.24 128.022 22.31 127.802 22.31H127.382C127.172 22.31 127.102 22.24 127.102 22.02V16.25C127.102 15.4105 127.159 14.5719 127.272 13.74H127.212C126.9 14.5007 126.535 15.2391 126.122 15.95L123.972 19.74C123.946 19.8058 123.9 19.862 123.841 19.9013C123.782 19.9405 123.713 19.961 123.642 19.96H123.362C123.29 19.9604 123.22 19.9397 123.159 19.9007C123.099 19.8616 123.051 19.8058 123.022 19.74L120.842 15.91C120.455 15.2093 120.121 14.4806 119.842 13.73H119.782C119.884 14.5695 119.938 15.4143 119.942 16.26V22.02C119.942 22.24 119.872 22.31 119.652 22.31H119.262C119.042 22.31 118.972 22.24 118.972 22.02V12.54C118.972 12.32 119.042 12.25 119.262 12.25H119.622C119.704 12.2424 119.787 12.2603 119.858 12.3015C119.93 12.3427 119.987 12.4051 120.022 12.48L123.522 18.7L127.002 12.54C127.112 12.33 127.172 12.3 127.392 12.3L127.802 12.25Z" fill="#FFFEF6"/>
<path d="M13.4623 20.79V28.02C13.4623 28.2972 13.3522 28.563 13.1562 28.7589C12.9603 28.9549 12.6945 29.065 12.4173 29.065C12.1402 29.065 11.8744 28.9549 11.6784 28.7589C11.4824 28.563 11.3723 28.2972 11.3723 28.02V20.8C11.6633 21.0125 12.0121 21.1311 12.3723 21.14C12.7649 21.1512 13.1496 21.0277 13.4623 20.79ZM22.3623 18.7C22.0971 18.7 21.8427 18.8054 21.6552 18.9929C21.4677 19.1804 21.3623 19.4348 21.3623 19.7V20.96C21.3623 21.2372 21.4724 21.503 21.6684 21.6989C21.8643 21.8949 22.1301 22.005 22.4073 22.005C22.6845 22.005 22.9503 21.8949 23.1462 21.6989C23.3422 21.503 23.4523 21.2372 23.4523 20.96V19.75C23.4601 19.6066 23.4369 19.4632 23.3843 19.3296C23.3317 19.196 23.251 19.0752 23.1475 18.9756C23.0441 18.876 22.9204 18.7998 22.785 18.7522C22.6495 18.7047 22.5053 18.6869 22.3623 18.7ZM9.1023 23.53C8.74247 23.5192 8.39413 23.4008 8.1023 23.19V30.44C8.1023 30.7185 8.21292 30.9856 8.40984 31.1825C8.60675 31.3794 8.87382 31.49 9.1523 31.49C9.43078 31.49 9.69785 31.3794 9.89476 31.1825C10.0917 30.9856 10.2023 30.7185 10.2023 30.44V23.24C9.87575 23.4511 9.49046 23.5527 9.1023 23.53ZM19.1023 16.53C18.9668 16.5232 18.8314 16.5441 18.7042 16.5913C18.5771 16.6385 18.4609 16.7111 18.3626 16.8046C18.2644 16.8982 18.1863 17.0107 18.1329 17.1354C18.0796 17.2601 18.0521 17.3944 18.0523 17.53V23.1C18.0523 23.3785 18.1629 23.6456 18.3598 23.8425C18.5568 24.0394 18.8238 24.15 19.1023 24.15C19.3808 24.15 19.6479 24.0394 19.8448 23.8425C20.0417 23.6456 20.1523 23.3785 20.1523 23.1V17.6C20.1603 17.4557 20.1369 17.3114 20.0837 17.177C20.0305 17.0426 19.9489 16.9213 19.8443 16.8215C19.7397 16.7217 19.6148 16.6457 19.4781 16.5989C19.3414 16.552 19.1961 16.5353 19.0523 16.55L19.1023 16.53ZM15.7823 18.67C15.4056 18.6674 15.039 18.5487 14.7323 18.33V25.6C14.7323 25.8785 14.8429 26.1456 15.0398 26.3425C15.2368 26.5394 15.5038 26.65 15.7823 26.65C16.0608 26.65 16.3278 26.5394 16.5248 26.3425C16.7217 26.1456 16.8323 25.8785 16.8323 25.6V18.34C16.5151 18.5763 16.1278 18.6995 15.7323 18.69L15.7823 18.67ZM6.8323 24.24V3.93C6.82967 3.68243 6.72947 3.44591 6.55347 3.27178C6.37747 3.09765 6.13988 2.99999 5.8923 3H5.6723C5.42472 2.99999 5.18713 3.09765 5.01113 3.27178C4.83513 3.44591 4.73493 3.68243 4.7323 3.93V24.24C4.7323 24.4893 4.83134 24.7284 5.00762 24.9047C5.1839 25.081 5.423 25.18 5.6723 25.18H5.8923C6.14161 25.18 6.3807 25.081 6.55698 24.9047C6.73327 24.7284 6.8323 24.4893 6.8323 24.24ZM9.2123 22.76H8.9923C8.743 22.76 8.5039 22.661 8.32762 22.4847C8.15134 22.3084 8.0523 22.0693 8.0523 21.82V6.35C8.05494 6.10244 8.15513 5.8659 8.33113 5.69178C8.50713 5.51765 8.74472 5.41999 8.9923 5.42H9.2123C9.45988 5.41999 9.69747 5.51765 9.87347 5.69178C10.0495 5.8659 10.1497 6.10244 10.1523 6.35V21.84C10.1523 22.0893 10.0533 22.3284 9.87698 22.5047C9.7007 22.681 9.4616 22.78 9.2123 22.78V22.76ZM12.5223 20.38H12.2923C12.0457 20.38 11.8091 20.282 11.6347 20.1076C11.4603 19.9332 11.3623 19.6967 11.3623 19.45V8.75C11.361 8.62703 11.3841 8.50502 11.4302 8.39103C11.4763 8.27704 11.5446 8.17334 11.6311 8.08592C11.7176 7.9985 11.8206 7.9291 11.9341 7.88174C12.0476 7.83438 12.1693 7.80999 12.2923 7.81H12.5223C12.7699 7.81264 13.0064 7.91283 13.1805 8.08883C13.3547 8.26483 13.4523 8.50242 13.4523 8.75V19.45C13.4523 19.6967 13.3543 19.9332 13.1799 20.1076C13.0055 20.282 12.769 20.38 12.5223 20.38ZM15.8323 17.93H15.6223C15.3747 17.93 15.1371 17.8324 14.9611 17.6582C14.7851 17.4841 14.6849 17.2476 14.6823 17V11.24C14.6741 11.1116 14.6923 10.9829 14.7359 10.8618C14.7794 10.7408 14.8474 10.6299 14.9355 10.5362C15.0236 10.4424 15.13 10.3678 15.2482 10.3168C15.3663 10.2659 15.4936 10.2397 15.6223 10.24H15.8423C16.0916 10.24 16.3307 10.339 16.507 10.5153C16.6833 10.6916 16.7823 10.9307 16.7823 11.18V16.98C16.7836 17.1043 16.7603 17.2276 16.7136 17.3428C16.667 17.458 16.598 17.5628 16.5105 17.6512C16.4231 17.7395 16.3191 17.8096 16.2043 17.8575C16.0896 17.9054 15.9666 17.93 15.8423 17.93H15.8323ZM19.1523 15.78H18.9323C18.683 15.78 18.4439 15.681 18.2676 15.5047C18.0913 15.3284 17.9923 15.0893 17.9923 14.84V13.35C17.9949 13.1024 18.0951 12.8659 18.2711 12.6918C18.4471 12.5176 18.6847 12.42 18.9323 12.42H19.1523C19.3999 12.42 19.6375 12.5176 19.8135 12.6918C19.9895 12.8659 20.0897 13.1024 20.0923 13.35V14.84C20.0923 15.0876 19.9947 15.3252 19.8205 15.5012C19.6464 15.6772 19.4099 15.7774 19.1623 15.78H19.1523Z" fill="#FFFEF6"/>
</svg>
