<svg width="141" height="31" viewBox="0 0 141 31" fill="none" xmlns="http://www.w3.org/2000/svg">
<path d="M23.3988 13.871C23.0198 14.2523 22.7296 14.7125 22.5488 15.2187C22.368 15.725 22.3011 16.2649 22.3528 16.8L22.3348 16.782C22.388 17.4119 22.303 18.0457 22.0859 18.6394C21.8688 19.233 21.5248 19.7721 21.0779 20.2191C20.6309 20.666 20.0918 21.0101 19.4981 21.2271C18.9045 21.4442 18.2706 21.5292 17.6408 21.476L17.6588 21.494C16.9054 21.4239 16.1487 21.5878 15.4918 21.9635C14.835 22.3392 14.31 22.9083 13.9885 23.5933C13.667 24.2783 13.5645 25.0457 13.6951 25.7911C13.8258 26.5364 14.1831 27.2233 14.7184 27.7581C15.2537 28.2929 15.9409 28.6496 16.6863 28.7795C17.4318 28.9095 18.1991 28.8063 18.8838 28.4842C19.5685 28.162 20.1371 27.6366 20.5122 26.9794C20.8873 26.3222 21.0506 25.5654 20.9798 24.812L20.9988 24.83C20.9456 24.2002 21.0305 23.5663 21.2476 22.9726C21.4647 22.379 21.8088 21.8399 22.2557 21.3929C22.7027 20.946 23.2418 20.6019 23.8354 20.3849C24.4291 20.1678 25.0629 20.0828 25.6928 20.136L25.6738 20.118C26.2892 20.1733 26.9087 20.0724 27.4748 19.8246C28.0408 19.5768 28.5352 19.1901 28.912 18.7004C29.2888 18.2107 29.536 17.6337 29.6304 17.0231C29.7249 16.4124 29.6637 15.7878 29.4525 15.207C29.2413 14.6263 28.8869 14.1083 28.4222 13.701C27.9575 13.2937 27.3975 13.0103 26.7941 12.8771C26.1907 12.7439 25.5634 12.7651 24.9704 12.9388C24.3774 13.1126 23.8379 13.4332 23.4018 13.871H23.3988Z" fill="#FFFEF6"/>
<path d="M16.0218 19.136L16.0028 19.118C16.5381 19.1719 17.0787 19.1062 17.5856 18.9256C18.0924 18.745 18.5528 18.4541 18.9334 18.0738C19.3139 17.6935 19.6053 17.2333 19.7862 16.7266C19.9672 16.2199 20.0333 15.6794 19.9798 15.144L19.9988 15.162C19.9456 14.5321 20.0306 13.8983 20.2476 13.3046C20.4647 12.711 20.8088 12.1719 21.2557 11.7249C21.7027 11.278 22.2418 10.9339 22.8354 10.7169C23.4291 10.4998 24.0629 10.4148 24.6928 10.468L24.6738 10.45C25.4273 10.5208 26.1842 10.3574 26.8414 9.9821C27.4987 9.60684 28.0241 9.03797 28.3461 8.3531C28.6681 7.66824 28.771 6.90071 28.6408 6.1552C28.5106 5.40969 28.1536 4.72251 27.6184 4.18737C27.0833 3.65224 26.3961 3.2952 25.6506 3.16498C24.9051 3.03475 24.1376 3.13766 23.4527 3.45968C22.7678 3.78169 22.199 4.30714 21.8237 4.96435C21.4484 5.62155 21.285 6.37852 21.3558 7.132L21.3378 7.113C21.3911 7.74289 21.3063 8.37683 21.0893 8.97055C20.8723 9.56427 20.5282 10.1035 20.0813 10.5505C19.6343 10.9974 19.0951 11.3415 18.5014 11.5585C17.9076 11.7755 17.2737 11.8603 16.6438 11.807L16.6618 11.826C16.1265 11.7721 15.5858 11.8378 15.079 12.0184C14.5722 12.1989 14.1118 12.4899 13.7312 12.8702C13.3506 13.2505 13.0593 13.7107 12.8783 14.2174C12.6974 14.7241 12.6313 15.2646 12.6848 15.8L12.6668 15.782C12.7198 16.4118 12.6347 17.0456 12.4176 17.6392C12.2004 18.2327 11.8564 18.7718 11.4095 19.2187C10.9626 19.6656 10.4235 20.0096 9.82996 20.2268C9.2364 20.4439 8.60261 20.529 7.9728 20.476L7.9908 20.494C7.23732 20.4232 6.48035 20.5866 5.82314 20.9619C5.16594 21.3372 4.64049 21.906 4.31848 22.5909C3.99646 23.2758 3.89354 24.0433 4.02377 24.7888C4.154 25.5343 4.51104 26.2215 5.04617 26.7566C5.58131 27.2918 6.26849 27.6488 7.014 27.779C7.75951 27.9092 8.52704 27.8063 9.21191 27.4843C9.89677 27.1623 10.4656 26.6369 10.8409 25.9797C11.2162 25.3224 11.3796 24.5655 11.3088 23.812L11.3278 23.83C11.2746 23.2001 11.3596 22.5663 11.5767 21.9726C11.7937 21.379 12.1378 20.8399 12.5847 20.3929C13.0317 19.946 13.5708 19.6019 14.1644 19.3849C14.7581 19.1678 15.3919 19.0828 16.0218 19.136Z" fill="#FFFEF6"/>
<path d="M9.3198 17.1289C9.69882 16.7477 9.989 16.2875 10.1696 15.7812C10.3503 15.2749 10.4169 14.7349 10.3648 14.1999L10.3838 14.2179C10.3306 13.5879 10.4155 12.9538 10.6328 12.36C10.85 11.7662 11.1942 11.227 11.6414 10.78C12.0886 10.3331 12.6279 9.98907 13.2218 9.77212C13.8157 9.55516 14.4498 9.47046 15.0798 9.52394L15.0608 9.50594C15.814 9.57651 16.5707 9.41302 17.2276 9.03778C17.8845 8.66255 18.4096 8.09382 18.7315 7.40917C19.0533 6.72451 19.1561 5.95726 19.0259 5.21203C18.8957 4.4668 18.5387 3.77988 18.0038 3.24494C17.4689 2.71 16.7819 2.35308 16.0367 2.22286C15.2915 2.09263 14.5242 2.19545 13.8396 2.51727C13.1549 2.83909 12.5862 3.36426 12.211 4.02116C11.8357 4.67806 11.6722 5.43472 11.7428 6.18794L11.7248 6.16994C11.778 6.79979 11.693 7.43366 11.4759 8.0273C11.2588 8.62094 10.9148 9.16005 10.4679 9.60701C10.0209 10.054 9.48179 10.398 8.88815 10.615C8.29451 10.8321 7.66065 10.9171 7.0308 10.8639L7.04879 10.8819C6.43336 10.8267 5.81396 10.9278 5.24798 11.1757C4.682 11.4236 4.18775 11.8104 3.81104 12.3002C3.43433 12.7899 3.18735 13.3669 3.09297 13.9775C2.9986 14.5882 3.05989 15.2128 3.27116 15.7934C3.48243 16.3741 3.83686 16.892 4.30159 17.2992C4.76632 17.7065 5.32632 17.9898 5.9297 18.123C6.53307 18.2561 7.1603 18.2348 7.75327 18.0611C8.34623 17.8873 8.88573 17.5667 9.32179 17.1289H9.3198Z" fill="#FFFEF6"/>
<path d="M40.2968 7.15503H43.2668V21.608H40.2968V7.15503Z" fill="#FFFEF6"/>
<path d="M44.9488 16.659C44.9447 15.6204 45.2489 14.6038 45.8229 13.7382C46.3969 12.8726 47.2149 12.1968 48.1733 11.7965C49.1317 11.3961 50.1873 11.2892 51.2065 11.4893C52.2257 11.6894 53.1626 12.1874 53.8985 12.9204C54.6344 13.6533 55.1362 14.5882 55.3404 15.6066C55.5446 16.625 55.4419 17.6811 55.0454 18.6411C54.6489 19.601 53.9764 20.4218 53.1131 20.9992C52.2497 21.5767 51.2345 21.885 50.1958 21.885C49.5064 21.8929 48.8223 21.7632 48.1835 21.5036C47.5447 21.244 46.9641 20.8597 46.4756 20.3732C45.987 19.8866 45.6004 19.3075 45.3383 18.6698C45.0761 18.0321 44.9437 17.3485 44.9488 16.659ZM52.4728 16.659C52.4604 16.2113 52.3163 15.7772 52.0586 15.4109C51.8008 15.0447 51.4408 14.7625 51.0236 14.5998C50.6063 14.437 50.1504 14.4008 49.7127 14.4958C49.275 14.5908 48.875 14.8126 48.5627 15.1337C48.2505 15.4547 48.0397 15.8607 47.957 16.3009C47.8742 16.741 47.9229 17.1958 48.0972 17.6084C48.2715 18.021 48.5635 18.373 48.9367 18.6205C49.31 18.868 49.748 19 50.1958 19C50.5025 19.0082 50.8076 18.9527 51.0919 18.8371C51.3761 18.7215 51.6333 18.5483 51.8472 18.3284C52.0611 18.1084 52.2272 17.8465 52.3348 17.5592C52.4425 17.2719 52.4895 16.9654 52.4728 16.659Z" fill="#FFFEF6"/>
<path d="M67.2798 11.7091V21.1091C67.2798 24.4351 64.6858 25.8411 62.0528 25.8411C61.1258 25.9105 60.1975 25.7232 59.3698 25.2999C58.5422 24.8765 57.8471 24.2334 57.3608 23.4411L59.8948 21.9761C60.0992 22.3891 60.4249 22.7298 60.8282 22.9527C61.2316 23.1755 61.6934 23.2699 62.1518 23.2231C62.4448 23.2637 62.7432 23.2379 63.0249 23.1476C63.3065 23.0573 63.5643 22.9048 63.7791 22.7015C63.9939 22.4981 64.1602 22.2491 64.2658 21.9727C64.3713 21.6964 64.4133 21.3999 64.3888 21.1051V20.2001C64.041 20.6256 63.5984 20.9637 63.0963 21.1872C62.5942 21.4107 62.0468 21.5134 61.4978 21.4871C60.1916 21.4459 58.9527 20.8981 58.0433 19.9595C57.1339 19.021 56.6254 17.7654 56.6254 16.4586C56.6254 15.1518 57.1339 13.8962 58.0433 12.9577C58.9527 12.0191 60.1916 11.4713 61.4978 11.4301C62.0468 11.4038 62.5942 11.5065 63.0963 11.73C63.5984 11.9535 64.041 12.2916 64.3888 12.7171V11.7071L67.2798 11.7091ZM64.3898 16.4601C64.4098 15.9815 64.286 15.5078 64.0345 15.1001C63.783 14.6923 63.4152 14.3692 62.9785 14.1723C62.5418 13.9753 62.0562 13.9136 61.5841 13.995C61.112 14.0764 60.6751 14.2972 60.3295 14.6291C59.984 14.9609 59.7457 15.3885 59.6452 15.8569C59.5448 16.3253 59.5868 16.8131 59.766 17.2574C59.9451 17.7017 60.2531 18.0823 60.6503 18.3501C61.0475 18.6179 61.5158 18.7607 61.9948 18.7601C62.3069 18.7819 62.62 18.7381 62.9141 18.6315C63.2082 18.5249 63.4767 18.3578 63.7023 18.1412C63.9279 17.9245 64.1057 17.663 64.2241 17.3734C64.3425 17.0839 64.399 16.7728 64.3898 16.4601Z" fill="#FFFEF6"/>
<path d="M68.9618 16.659C68.9577 15.6204 69.2618 14.6038 69.8359 13.7382C70.4099 12.8726 71.2279 12.1968 72.1863 11.7965C73.1447 11.3961 74.2003 11.2892 75.2195 11.4893C76.2387 11.6894 77.1756 12.1874 77.9115 12.9204C78.6474 13.6533 79.1492 14.5882 79.3534 15.6066C79.5576 16.625 79.4549 17.6811 79.0584 18.6411C78.6619 19.601 77.9894 20.4218 77.1261 20.9992C76.2627 21.5767 75.2475 21.885 74.2088 21.885C73.5194 21.8929 72.8352 21.7632 72.1965 21.5036C71.5577 21.244 70.9771 20.8597 70.4886 20.3732C70 19.8866 69.6134 19.3075 69.3513 18.6698C69.0891 18.0321 68.9567 17.3485 68.9618 16.659ZM76.4858 16.659C76.4734 16.2113 76.3293 15.7772 76.0716 15.4109C75.8138 15.0447 75.4538 14.7625 75.0366 14.5998C74.6193 14.437 74.1633 14.4008 73.7257 14.4958C73.288 14.5908 72.888 14.8126 72.5757 15.1337C72.2635 15.4547 72.0527 15.8607 71.9699 16.3009C71.8871 16.741 71.9359 17.1958 72.1102 17.6084C72.2845 18.021 72.5765 18.373 72.9497 18.6205C73.323 18.868 73.7609 19 74.2088 19C74.5155 19.0082 74.8206 18.9527 75.1048 18.8371C75.3891 18.7215 75.6463 18.5483 75.8602 18.3284C76.0741 18.1084 76.2402 17.8465 76.3478 17.5592C76.4555 17.2719 76.5025 16.9654 76.4858 16.659Z" fill="#FFFEF6"/>
<path d="M80.8408 9.05605C80.8408 8.7036 80.9453 8.35907 81.1411 8.06603C81.3369 7.77298 81.6153 7.54457 81.9409 7.4097C82.2665 7.27482 82.6248 7.23953 82.9705 7.30829C83.3161 7.37705 83.6337 7.54677 83.8829 7.79599C84.1321 8.0452 84.3018 8.36272 84.3706 8.7084C84.4393 9.05407 84.404 9.41237 84.2692 9.73799C84.1343 10.0636 83.9059 10.3419 83.6128 10.5377C83.3198 10.7335 82.9753 10.8381 82.6228 10.8381C82.1517 10.8334 81.7011 10.6441 81.3679 10.3109C81.0348 9.97775 80.8455 9.52721 80.8408 9.05605ZM81.1408 11.709H84.1118V21.609H81.1368L81.1408 11.709Z" fill="#FFFEF6"/>
<path d="M96.9358 16.659C96.9701 17.3133 96.8748 17.9679 96.6552 18.5852C96.4357 19.2025 96.0963 19.7703 95.6565 20.256C95.2168 20.7416 94.6853 21.1356 94.0928 21.4152C93.5002 21.6947 92.8583 21.8544 92.2038 21.885C91.6534 21.915 91.1033 21.8222 90.5932 21.6133C90.0831 21.4043 89.626 21.0845 89.2548 20.677V25.568H86.2848V11.709H89.2548V12.639C89.6261 12.2318 90.0834 11.9122 90.5934 11.7035C91.1035 11.4947 91.6535 11.402 92.2038 11.432C92.8584 11.4625 93.5005 11.6221 94.0932 11.9017C94.6859 12.1813 95.2174 12.5753 95.6572 13.0611C96.097 13.5469 96.4364 14.1149 96.6558 14.7324C96.8752 15.3498 96.9704 16.0046 96.9358 16.659ZM93.9658 16.659C93.9542 16.1957 93.8062 15.7461 93.5403 15.3664C93.2744 14.9868 92.9025 14.694 92.4711 14.5248C92.0396 14.3555 91.5678 14.3172 91.1147 14.4148C90.6616 14.5123 90.2474 14.7413 89.9238 15.0731C89.6002 15.405 89.3817 15.8248 89.2956 16.2803C89.2095 16.7357 89.2596 17.2063 89.4397 17.6334C89.6197 18.0605 89.9218 18.4249 90.308 18.6812C90.6942 18.9374 91.1473 19.0741 91.6108 19.074C91.929 19.0882 92.2466 19.0349 92.5428 18.9177C92.8389 18.8006 93.107 18.6221 93.3293 18.3941C93.5517 18.166 93.7233 17.8936 93.833 17.5946C93.9427 17.2956 93.988 16.9767 93.9658 16.659Z" fill="#FFFEF6"/>
<path d="M106.101 18.638C106.101 20.915 104.122 21.885 101.984 21.885C101.12 21.9632 100.253 21.7806 99.4936 21.3605C98.7347 20.9405 98.1193 20.3025 97.7268 19.529L100.3 18.064C100.404 18.4215 100.628 18.7326 100.933 18.9451C101.239 19.1577 101.609 19.259 101.98 19.232C102.692 19.232 103.049 19.014 103.049 18.619C103.049 17.529 98.1778 18.104 98.1778 14.679C98.1778 12.52 99.9998 11.432 102.059 11.432C102.833 11.4075 103.599 11.5911 104.278 11.9636C104.957 12.3362 105.524 12.884 105.919 13.55L103.385 14.916C103.274 14.6567 103.089 14.4358 102.853 14.2809C102.617 14.126 102.341 14.044 102.059 14.045C101.544 14.045 101.227 14.245 101.227 14.599C101.231 15.728 106.101 14.975 106.101 18.638Z" fill="#FFFEF6"/>
<path d="M116.95 11.709V21.609H113.98V20.678C113.637 21.0888 113.202 21.4125 112.71 21.6225C112.218 21.8325 111.684 21.9228 111.15 21.886C109.15 21.886 107.45 20.461 107.45 17.786V11.709H110.42V17.351C110.395 17.5868 110.422 17.8252 110.499 18.0495C110.575 18.2739 110.7 18.4789 110.864 18.6502C111.028 18.8215 111.227 18.955 111.448 19.0415C111.668 19.128 111.905 19.1654 112.142 19.151C113.231 19.151 113.983 18.518 113.983 17.112V11.712L116.95 11.709Z" fill="#FFFEF6"/>
<path d="M133.98 15.53V21.608H131.01V15.787C131.01 14.797 130.535 14.164 129.585 14.164C128.595 14.164 128.04 14.857 128.04 16.025V21.608H125.071V15.787C125.071 14.797 124.596 14.164 123.645 14.164C122.655 14.164 122.101 14.857 122.101 16.025V21.608H119.131V11.708H122.101V12.618C122.409 12.2143 122.813 11.8941 123.276 11.6868C123.74 11.4794 124.248 11.3915 124.754 11.431C125.262 11.4061 125.768 11.5134 126.223 11.7423C126.677 11.9711 127.064 12.3139 127.347 12.737C127.676 12.2943 128.112 11.9423 128.614 11.7139C129.116 11.4855 129.668 11.3882 130.218 11.431C132.491 11.432 133.98 13.055 133.98 15.53Z" fill="#FFFEF6"/>
<path d="M136.492 11.648C137.709 11.648 138.696 10.6612 138.696 9.44399C138.696 8.22675 137.709 7.23999 136.492 7.23999C135.275 7.23999 134.288 8.22675 134.288 9.44399C134.288 10.6612 135.275 11.648 136.492 11.648Z" fill="#FFFEF6"/>
</svg>
